<?xml version="1.0" standalone="no"?>
<!DOCTYPE svg PUBLIC "-//W3C//DTD SVG 20010904//EN"
 "http://www.w3.org/TR/2001/REC-SVG-20010904/DTD/svg10.dtd">
<svg version="1.0" xmlns="http://www.w3.org/2000/svg"
 width="161.000000pt" height="183.000000pt" viewBox="0 0 161.000000 183.000000"
 preserveAspectRatio="xMidYMid meet">

<g transform="translate(0.000000,183.000000) scale(0.100000,-0.100000)"
fill="#000000" stroke="none">
<path d="M763 1704 c3 -3 104 -63 224 -134 l218 -128 3 -156 c1 -86 5 -156 7
-156 3 0 64 38 137 85 72 47 135 85 140 85 4 0 8 45 8 100 0 68 -4 100 -11
100 -7 0 -99 47 -206 105 l-195 105 -165 0 c-92 0 -164 -3 -160 -6z"/>
<path d="M495 1596 l-180 -104 -83 -128 c-45 -71 -90 -142 -99 -158 l-16 -30
24 15 c64 42 437 249 447 249 10 0 417 -231 550 -312 l33 -20 -3 157 -3 157
-235 139 c-129 76 -239 138 -245 138 -5 0 -91 -46 -190 -103z"/>
<path d="M338 1262 l-238 -137 0 -197 0 -198 91 -167 c51 -93 96 -172 100
-178 5 -5 9 111 9 267 l0 275 275 158 c151 86 275 160 275 163 -1 9 -241 146
-260 149 -8 1 -122 -60 -252 -135z"/>
<path d="M473 983 l-133 -77 0 -285 0 -286 180 -98 179 -97 186 2 186 3 -228
131 -228 131 -5 326 -5 326 -132 -76z"/>
<path d="M1330 823 c-80 -48 -200 -118 -268 -158 l-123 -72 118 -68 c65 -38
125 -73 134 -78 12 -8 51 10 162 74 l146 84 1 153 c0 116 -3 152 -12 151 -7 0
-78 -39 -158 -86z"/>
<path d="M648 576 l3 -145 237 -137 c130 -75 242 -137 247 -137 6 0 86 44 179
97 93 53 173 96 177 96 5 0 9 45 9 100 0 64 -4 100 -11 100 -5 0 -71 -36 -146
-79 l-135 -79 -122 71 c-66 38 -192 112 -279 164 -87 51 -159 93 -160 93 -1 0
-1 -65 1 -144z"/>
</g>
</svg>
